<?xml version="1.0" encoding="utf-8"?>
<!-- Generator: Adobe Illustrator 16.0.0, SVG Export Plug-In . SVG Version: 6.00 Build 0)  -->
<!DOCTYPE svg PUBLIC "-//W3C//DTD SVG 1.1//EN" "http://www.w3.org/Graphics/SVG/1.1/DTD/svg11.dtd">
<svg version="1.1" id="Layer_1" xmlns="http://www.w3.org/2000/svg" xmlns:xlink="http://www.w3.org/1999/xlink" x="0px" y="0px"
	 width="406.292px" height="322.952px" viewBox="0 0 406.292 322.952" enable-background="new 0 0 406.292 322.952"
	 xml:space="preserve">
<g>
	<defs>
		<rect id="SVGID_1_" x="-756.833" y="-378.548" width="1919.99" height="1080"/>
	</defs>
	<clipPath id="SVGID_2_">
		<use xlink:href="#SVGID_1_"  overflow="visible"/>
	</clipPath>
	<path clip-path="url(#SVGID_2_)" fill="#CCCCCC" d="M17.593,322.233c-2.617-1.195-3.889-3.363-3.889-5.979
		c0-1.272,0.299-2.543,0.897-3.813l10.17-22.88L0.844,236.697c-0.449-0.973-0.673-2.02-0.673-3.141c0-0.972,0.15-1.795,0.449-2.618
		c0.672-1.869,2.017-3.215,3.963-4.188c0.971-0.447,1.943-0.672,2.916-0.672c2.018,0,3.739,0.672,5.158,2.094
		c0.674,0.672,1.272,1.494,1.721,2.467l18.243,41.348l18.544-41.348c0.972-1.943,2.318-3.289,4.187-3.963
		c0.748-0.373,1.645-0.523,2.766-0.523c1.87,0,3.813,0.896,5.309,2.393c1.42,1.421,2.094,3.216,2.094,5.31
		c-0.074,1.047-0.373,2.02-0.748,2.916l-37.236,81.649c-0.973,1.943-2.319,3.29-4.188,3.963c-0.822,0.373-1.793,0.523-2.839,0.523
		C19.537,322.907,18.564,322.683,17.593,322.233"/>
	<path clip-path="url(#SVGID_2_)" fill="#CCCCCC" d="M122.102,289.26v-1.047c-5.608,5.385-12.188,8.449-19.142,8.449
		c-8.598,0-15.926-3.588-21.085-9.869c-5.16-6.28-8.076-14.954-8.076-24.823v-28.564c0-4.186,3.291-7.326,7.477-7.326
		c4.188,0,7.403,3.141,7.403,7.326v28.713c0,5.908,1.422,10.693,4.338,14.281c2.765,3.515,6.803,5.46,11.662,5.46
		c5.01,0,9.272-1.945,12.487-5.534c3.291-3.664,4.936-8.299,4.936-13.832v-28.862c0-4.188,3.215-7.403,7.402-7.403
		c2.018,0,4.038,0.822,5.309,2.094c1.42,1.422,2.168,3.216,2.168,5.31v55.629c0,2.094-0.748,3.814-2.242,5.234
		c-1.571,1.495-3.366,2.244-5.385,2.244C125.168,296.738,122.102,293.446,122.102,289.26"/>
	<path clip-path="url(#SVGID_2_)" fill="#CCCCCC" d="M154.082,294.42c-1.496-1.496-2.244-3.215-2.244-5.234v-55.629
		c0-2.169,0.748-3.89,2.244-5.31c1.569-1.42,3.289-2.168,5.309-2.168c3.662,0,6.578,2.617,7.178,6.206
		c4.485-4.112,9.42-6.206,14.729-6.206c7.776,0,14.43,3.141,18.991,8.749c5.758-5.46,13.685-8.749,21.386-8.749
		c7.402,0,13.758,2.84,18.243,7.927c4.412,5.008,6.879,11.738,6.879,19.215v36.039c0,4.188-3.215,7.328-7.326,7.328
		c-2.02,0-3.739-0.748-5.31-2.168c-1.496-1.422-2.244-3.141-2.244-5.16v-36.264c-0.074-3.365-1.195-6.43-3.215-8.597
		c-2.242-2.245-5.01-3.366-8.299-3.366c-3.216,0-6.58,1.346-9.197,3.439c-2.616,2.094-4.263,5.01-4.485,8.225v36.562
		c0,4.188-3.217,7.328-7.328,7.328c-2.02,0-3.739-0.748-5.309-2.168c-1.496-1.422-2.243-3.141-2.243-5.16v-36.562
		c-0.075-3.365-1.197-6.205-3.291-8.375c-2.093-2.168-4.785-3.289-8.149-3.289c-3.291,0-6.58,1.271-9.197,3.366
		c-2.692,2.167-4.413,5.157-4.487,8.224v0.447c-0.074,0.077-0.074,0.15,0,0.3c0.074,0.149,0.074,0.374,0,0.599v35.217
		c0,4.188-3.215,7.402-7.402,7.402C157.297,296.588,155.502,295.84,154.082,294.42"/>
	<path clip-path="url(#SVGID_2_)" fill="#CCCCCC" d="M267.027,287.018c-6.654-6.58-10.543-15.552-10.543-25.198
		c0-9.646,3.889-18.692,10.543-25.272c6.655-6.58,15.628-10.394,25.272-10.394c9.571,0,18.467,3.813,25.123,10.319
		c6.654,6.504,10.617,15.402,10.693,24.974c0,4.188-3.066,7.104-7.328,7.104h-47.779c1.197,4.186,3.738,7.85,7.104,10.467
		c3.365,2.692,7.701,4.112,12.188,4.112c5.757,0,10.169-1.793,13.383-5.309c1.571-1.271,3.216-1.871,4.937-1.871
		c0.822,0,1.645,0.151,2.467,0.45c1.42,0.523,2.617,1.57,3.59,3.142c0.822,1.271,1.271,2.691,1.271,4.188
		c0,2.168-0.973,4.037-2.841,5.607c-2.693,2.467-5.609,4.41-8.824,5.682c-3.961,1.57-8.672,2.392-13.981,2.392
		C282.655,297.409,273.683,293.598,267.027,287.018 M312.787,256.138c-1.121-4.562-3.59-8.524-7.104-11.292
		c-3.664-2.916-8.298-4.486-13.158-4.486c-5.01,0-9.346,1.496-13.01,4.486c-3.516,2.916-5.982,6.805-6.953,11.292H312.787z"/>
	<path clip-path="url(#SVGID_2_)" fill="#CCCCCC" d="M345.064,287.018c-6.654-6.58-10.543-15.552-10.543-25.198
		c0-9.646,3.889-18.692,10.543-25.272c6.655-6.58,15.628-10.394,25.272-10.394c9.571,0,18.467,3.813,25.122,10.319
		c6.655,6.504,10.618,15.402,10.694,24.974c0,4.188-3.066,7.104-7.328,7.104h-47.779c1.197,4.186,3.738,7.85,7.104,10.467
		c3.365,2.692,7.701,4.112,12.188,4.112c5.757,0,10.169-1.793,13.383-5.309c1.571-1.271,3.216-1.871,4.937-1.871
		c0.822,0,1.645,0.151,2.467,0.45c1.42,0.523,2.617,1.57,3.59,3.142c0.822,1.271,1.27,2.691,1.27,4.188
		c0,2.168-0.972,4.037-2.84,5.607c-2.693,2.467-5.609,4.41-8.824,5.682c-3.961,1.57-8.672,2.392-13.981,2.392
		C360.692,297.409,351.72,293.598,345.064,287.018 M390.824,256.138c-1.121-4.562-3.59-8.524-7.104-11.292
		c-3.664-2.916-8.298-4.486-13.158-4.486c-5.01,0-9.346,1.496-13.01,4.486c-3.516,2.916-5.982,6.805-6.955,11.292H390.824z"/>
	<path clip-path="url(#SVGID_2_)" fill="#A9D856" d="M207.861,70.122L238.13,6.747c-13.272-5.142-27.731-7.735-42.869-6.405
		c-4.914,0.432-9.567,1.576-14.22,2.706L207.861,70.122z"/>
	<path clip-path="url(#SVGID_2_)" fill="#8CC63F" d="M157.703,15.06c-0.356-0.905-0.337-1.968-0.468-2.965
		c-32.162,17.831-52.64,53.302-49.213,92.297c1.053,11.98,4.3,23.221,9.264,33.415c4.482-5.701,8.581-10.824,11.82-14.818
		c-10.132-9.847-3.505-23.033-0.009-28.602c11.768-18.751,26.35-22.538,33.928-17.782c0.147,0.091,0.182,0.341,0.323,0.442
		c0.151,0.083,0.391,0.006,0.537,0.097c7.579,4.757,10.509,19.535-1.259,38.286c-3.495,5.569-12.488,17.272-25.759,12.429
		c-2.894,6.154-6.834,14.389-11.365,23.514c8.041,11.262,18.316,20.759,30.264,27.666l22.254-46.611
		c0.121-0.23,0.366-0.269,0.491-0.489l14.651-30.913L157.703,15.06z"/>
	<path clip-path="url(#SVGID_2_)" fill="#CAD146" d="M299.312,87.581c-2.565-29.199-18.198-53.843-40.364-69.574l-57.947,120.85
		c-0.202,0.664-0.429,1.316-0.7,1.936l-22.904,47.292c10.979,3.137,22.62,4.607,34.675,3.548
		c18.892-1.66,35.967-8.755,49.968-19.513c-1.105-10.425-1.958-19.842-2.551-26.914c-5.937-0.038-15.96-3.032-20.003-22.119
		c-5.889-27.79-5.961-30.192-1.765-31.059c4.128-0.852,4.336,1.128,11.439,33.596c0.006,0.054-0.012,0.105,0,0.159
		c0.336,1.629,1.996,2.662,3.708,2.308c1.712-0.353,2.826-1.96,2.49-3.588c-0.006-0.027-0.026-0.046-0.031-0.072l0.016-0.003
		l-1.121-5.427l0.022-0.004c-5.888-27.79-5.96-30.194-1.763-31.061c3.937-0.813,4.295,0.895,10.49,29.257l0.034-0.007l0.591,2.865
		c0.186,0.85,0.368,1.681,0.559,2.556l0.005-0.001c0.005,0.026-0.006,0.052,0,0.078c0.337,1.628,1.997,2.662,3.708,2.309
		c1.712-0.354,2.827-1.961,2.49-3.59c-0.005-0.027-0.026-0.045-0.031-0.072l0.061-0.012c-6.361-32.704-6.958-34.604-2.825-35.457
		c4.195-0.866,5.081,1.367,10.689,29.215c3.851,19.125-4.163,25.847-9.599,28.234c1.617,4.816,3.59,10.797,5.722,17.468
		C291.926,141.616,301.767,115.506,299.312,87.581"/>
</g>
</svg>
